<svg xmlns="http://www.w3.org/2000/svg" width="512" height="512" viewBox="0 0 30.68 30.68"><path d="M24.562 2.313l3.976 4.051-1.309 1.285-1.888-1.922-.779.762 1.888 1.926-.843.825-1.224-1.25-.779.765 1.225 1.25-1.157 1.134-1.888-1.923-.778.764 1.889 1.924-.844.826-1.224-1.25-.78.765 2.316 2.301 8.317-8.162L24.584.172l-8.413 8.255 1.07 1.071zM12.756 19.002l1.426 1.452-1.069 1.047-2.088-2.127-.778.764 2.087 2.127-.842.826-1.424-1.451-.779.765 1.424 1.451-1.156 1.135-2.087-2.127-.78.763 2.088 2.128-.843.828L6.51 25.13l-.777.765 1.424 1.45-1.041 1.023-3.975-4.053 8.865-8.7-1.071-1.069L0 24.294l6.097 6.213 9.939-9.714-2.501-2.556zm-.391-12.938l.009-.008-4.089-4.088-4.806 4.806 4.089 4.089.006-.007 12.669 12.669 7.789 3.422-2.919-8.1L12.365 6.064zM6.784 8.289L5.271 6.775l3.016-3.016L9.8 5.271 6.784 8.289zm18.232 16.655l-4.367-1.906-.576-.578 2.578.154-.435-1.793 1.89.336.021-2.444.416.417 1.664 4.625-1.191 1.189z" fill="#c0392b"/></svg>