<svg xmlns="http://www.w3.org/2000/svg" viewBox="0 0 460 460" width="512" height="512"><g fill="#c0392b"><path d="M374.209 70.781c-18.104-21.794-39.402-39.016-63.306-51.188C285.371 6.592 258.151 0 230 0s-55.371 6.592-80.903 19.593c-23.903 12.172-45.202 29.394-63.306 51.188C50.112 113.735 30.463 170.28 30.463 230s19.649 116.265 55.328 159.219c18.104 21.794 39.402 39.016 63.306 51.188C174.629 453.408 201.849 460 230 460s55.371-6.592 80.903-19.593c23.903-12.172 45.202-29.394 63.306-51.188 35.679-42.954 55.328-99.499 55.328-159.219s-19.649-116.265-55.328-159.219zm-15.385 305.658c-16.354 19.689-35.531 35.214-56.997 46.145C279.134 434.141 254.967 440 230 440s-49.134-5.859-71.827-17.416c-21.466-10.931-40.643-26.456-56.997-46.145C68.473 337.068 50.463 285.062 50.463 230s18.01-107.068 50.713-146.439c16.354-19.689 35.531-35.214 56.997-46.145C180.866 25.859 205.033 20 230 20s49.134 5.859 71.827 17.416c21.466 10.931 40.643 26.456 56.997 46.145 32.703 39.371 50.713 91.377 50.713 146.439s-18.01 107.068-50.713 146.439z"/><path d="M343.341 96.42C313.188 60.119 272.936 40.126 230 40.126S146.813 60.119 116.658 96.42C86.95 132.186 70.59 179.625 70.59 230s16.36 97.814 46.068 133.579c30.154 36.302 70.406 56.294 113.342 56.294s83.188-19.992 113.341-56.294C373.049 327.814 389.41 280.375 389.41 230s-16.361-97.814-46.069-133.58zM369.162 220h-48.105l-36.868-63.857 33.527-58.071c29.526 29.203 49.093 72.792 51.446 121.928zm-102.294 73.857h-73.736L156.264 230l36.868-63.857h73.736L303.736 230l-36.868 63.857zm35.419-209.063l-35.419 61.348h-73.736l-35.419-61.348c21.09-15.647 45.84-24.668 72.287-24.668 26.447 0 51.196 9.021 72.287 24.668zM142.284 98.072l33.528 58.071L138.943 220H90.838c2.353-49.135 21.92-92.725 51.446-121.928zM90.838 240h48.105l36.868 63.857-33.528 58.071C112.758 332.725 93.191 289.135 90.838 240zm66.874 135.205l35.419-61.348h73.736l35.419 61.348c-21.091 15.647-45.84 24.668-72.287 24.668-26.446 0-51.196-9.02-72.287-24.668zm160.004-13.276l-33.527-58.072L321.057 240h48.105c-2.353 49.136-21.92 92.725-51.446 121.929z"/></g></svg>