<?xml version="1.0" encoding="iso-8859-1"?>
<!-- Generator: Adobe Illustrator 17.1.0, SVG Export Plug-In . SVG Version: 6.00 Build 0)  -->
<!DOCTYPE svg PUBLIC "-//W3C//DTD SVG 1.1//EN" "http://www.w3.org/Graphics/SVG/1.1/DTD/svg11.dtd">
<svg xmlns="http://www.w3.org/2000/svg" xmlns:xlink="http://www.w3.org/1999/xlink" version="1.1" id="Capa_1" x="0px" y="0px" viewBox="0 0 460 460" style="enable-background:new 0 0 460 460;" xml:space="preserve" width="512px" height="512px">
<g>
	<path d="M374.209,70.781c-18.104-21.794-39.402-39.016-63.306-51.188C285.371,6.592,258.151,0,230,0s-55.371,6.592-80.903,19.593   c-23.903,12.172-45.202,29.394-63.306,51.188C50.112,113.735,30.463,170.28,30.463,230s19.649,116.265,55.328,159.219   c18.104,21.794,39.402,39.016,63.306,51.188C174.629,453.408,201.849,460,230,460s55.371-6.592,80.903-19.593   c23.903-12.172,45.202-29.394,63.306-51.188c35.679-42.954,55.328-99.499,55.328-159.219S409.888,113.735,374.209,70.781z    M358.824,376.439c-16.354,19.689-35.531,35.214-56.997,46.145C279.134,434.141,254.967,440,230,440s-49.134-5.859-71.827-17.416   c-21.466-10.931-40.643-26.456-56.997-46.145C68.473,337.068,50.463,285.062,50.463,230s18.01-107.068,50.713-146.439   c16.354-19.689,35.531-35.214,56.997-46.145C180.866,25.859,205.033,20,230,20s49.134,5.859,71.827,17.416   c21.466,10.931,40.643,26.456,56.997,46.145c32.703,39.371,50.713,91.377,50.713,146.439S391.527,337.068,358.824,376.439z" fill="#c0392b"/>
	<path d="M343.341,96.42C313.188,60.119,272.936,40.126,230,40.126S146.813,60.119,116.658,96.42   C86.95,132.186,70.59,179.625,70.59,230s16.36,97.814,46.068,133.579c30.154,36.302,70.406,56.294,113.342,56.294   s83.188-19.992,113.341-56.294C373.049,327.814,389.41,280.375,389.41,230S373.049,132.186,343.341,96.42z M369.162,220h-48.105   l-36.868-63.857l33.527-58.071C347.242,127.275,366.809,170.864,369.162,220z M266.868,293.857h-73.736L156.264,230l36.868-63.857   h73.736L303.736,230L266.868,293.857z M302.287,84.794l-35.419,61.348h-73.736l-35.419-61.348   C178.803,69.147,203.553,60.126,230,60.126C256.447,60.126,281.196,69.147,302.287,84.794z M142.284,98.072l33.528,58.071   L138.943,220H90.838C93.191,170.865,112.758,127.275,142.284,98.072z M90.838,240h48.105l36.868,63.857l-33.528,58.071   C112.758,332.725,93.191,289.135,90.838,240z M157.712,375.205l35.419-61.348h73.736l35.419,61.348   c-21.091,15.647-45.84,24.668-72.287,24.668C203.553,399.873,178.803,390.853,157.712,375.205z M317.716,361.929l-33.527-58.072   L321.057,240h48.105C366.809,289.136,347.242,332.725,317.716,361.929z" fill="#c0392b"/>
</g>
<g>
</g>
<g>
</g>
<g>
</g>
<g>
</g>
<g>
</g>
<g>
</g>
<g>
</g>
<g>
</g>
<g>
</g>
<g>
</g>
<g>
</g>
<g>
</g>
<g>
</g>
<g>
</g>
<g>
</g>
</svg>
