<?xml version="1.0" encoding="iso-8859-1"?>
<!-- Generator: Adobe Illustrator 19.0.0, SVG Export Plug-In . SVG Version: 6.00 Build 0)  -->
<svg xmlns="http://www.w3.org/2000/svg" xmlns:xlink="http://www.w3.org/1999/xlink" version="1.1" id="Layer_1" x="0px" y="0px" viewBox="0 0 512 512" style="enable-background:new 0 0 512 512;" xml:space="preserve" width="512px" height="512px">
<g>
	<g>
		<g>
			<path d="M88.538,224.152c-3.939-4.383-10.686-4.739-15.063-0.798c-4.381,3.937-4.739,10.684-0.8,15.063     c1.386,1.539,2.837,3.071,4.317,4.553c2.083,2.081,4.813,3.123,7.544,3.123c2.73,0,5.458-1.041,7.541-3.123     c4.166-4.166,4.166-10.921,0-15.086C90.863,226.669,89.671,225.412,88.538,224.152z" fill="#c0392b"/>
			<path d="M76.992,77.032c-17.185,17.185-28.466,38.884-32.621,62.753c-4.061,23.323-1.077,47.013,8.623,68.505     c1.781,3.946,5.665,6.282,9.729,6.282c1.467,0,2.958-0.304,4.381-0.948c5.369-2.422,7.758-8.739,5.333-14.111     c-16.325-36.167-8.431-79.325,19.64-107.395c4.166-4.166,4.166-10.918,0-15.086C87.912,72.869,81.16,72.868,76.992,77.032z" fill="#c0392b"/>
			<path d="M266.928,111.709c-2.422-5.369-8.739-7.755-14.111-5.336c-5.369,2.422-7.758,8.741-5.336,14.111     c16.323,36.169,8.429,79.33-19.64,107.398c-4.164,4.164-4.164,10.918,0,15.086c2.083,2.081,4.813,3.123,7.544,3.123     c2.73,0,5.458-1.041,7.541-3.123c17.187-17.187,28.466-38.886,32.622-62.753C279.608,156.893,276.629,133.203,266.928,111.709z" fill="#c0392b"/>
			<path d="M231.382,95.85c2.107,2.341,5.014,3.534,7.934,3.534c2.542,0,5.091-0.902,7.13-2.735     c4.381-3.937,4.739-10.684,0.8-15.063c-1.404-1.563-2.859-3.095-4.323-4.556c-4.169-4.162-10.921-4.156-15.084,0.013     c-4.162,4.169-4.158,10.921,0.011,15.084C229.043,93.319,230.233,94.571,231.382,95.85z" fill="#c0392b"/>
			<path d="M505.724,445.427L371.227,310.927c-0.009-0.008-0.015-0.017-0.021-0.022c-0.009-0.008-0.017-0.015-0.023-0.023     l-28.646-28.643c-4.021-4.023-9.377-6.238-15.084-6.238c-1.888,0-3.727,0.265-5.502,0.734l-28.5-28.501     c41.063-62.09,34.282-146.735-20.354-201.37C242.877,16.644,202.697,0,159.959,0C117.22,0,77.042,16.644,46.823,46.862     c-62.381,62.383-62.381,163.889,0,226.275c30.219,30.219,70.398,46.861,113.136,46.861c31.865,0,62.305-9.257,88.259-26.49     l28.477,28.479c-0.468,1.775-0.734,3.617-0.734,5.502c0,5.707,2.214,11.065,6.234,15.084l28.65,28.65     c0.009,0.009,0.013,0.015,0.021,0.022c0.006,0.006,0.015,0.013,0.021,0.019l134.499,134.499     c4.021,4.021,9.379,6.236,15.086,6.236c5.705,0,11.063-2.214,15.084-6.238l30.169-30.169c4.022-4.021,6.238-9.379,6.238-15.088     C511.962,454.797,509.745,449.442,505.724,445.427z M257.904,258.156c-26.179,26.123-60.956,40.509-97.944,40.509     c-37.04,0-71.862-14.423-98.052-40.613c-54.066-54.068-54.066-142.039,0-196.104c26.19-26.19,61.012-40.615,98.051-40.615     c37.038,0,71.861,14.425,98.053,40.615c54.031,54.029,54.066,141.924,0.102,196L257.904,258.156z M265.555,280.679l7.413-7.416     c0.044-0.042,0.087-0.083,0.129-0.125c0.042-0.042,0.081-0.083,0.123-0.125l7.419-7.421l24.186,24.188l-15.084,15.084     L265.555,280.679z M297.283,327.49l30.169-30.167l21.125,21.125l-30.167,30.169L297.283,327.49z M460.499,490.662     c-0.004,0.002-0.015,0.004-0.027,0.004v0.013L333.496,363.703l30.167-30.171l126.978,126.974L460.499,490.662z" fill="#c0392b"/>
		</g>
	</g>
</g>
<g>
</g>
<g>
</g>
<g>
</g>
<g>
</g>
<g>
</g>
<g>
</g>
<g>
</g>
<g>
</g>
<g>
</g>
<g>
</g>
<g>
</g>
<g>
</g>
<g>
</g>
<g>
</g>
<g>
</g>
</svg>
